<svg xmlns="http://www.w3.org/2000/svg" viewBox="0 0 128 128"><path d="M117 73.204L103.24 64 117 54.796v18.408zM69.5 112.22V86.568L93.348 70.62l19.248 12.872L69.5 112.22zM64 77.012L44.548 64 64 50.988 83.456 64 64 77.012zm-5.5 35.208L15.404 83.492 34.656 70.62 58.5 86.568v25.652zM11 54.796L24.764 64 11 73.204V54.796zM58.5 15.78v25.652L34.656 57.384 15.404 44.508 58.5 15.78zm11 0l43.096 28.728-19.248 12.876L69.5 41.432V15.78zm58.452 28.004l-.044-.24-.096-.46c-.024-.092-.06-.18-.088-.268l-.14-.4a2.74 2.74 0 0 0-.124-.268 2.84 2.84 0 0 0-.188-.364l-.156-.256-.232-.336-.188-.236-.276-.3-.216-.212-.312-.264-.248-.188c-.032-.02-.06-.048-.092-.068l-58.5-39c-1.848-1.232-4.252-1.232-6.104 0l-58.496 39c-.032.02-.06.048-.092.068-.088.06-.168.124-.248.188l-.312.264c-.076.064-.148.14-.22.212l-.272.3-.192.236-.228.336-.16.256C.66 41.9.6 42.02.54 42.148l-.12.268c-.056.132-.1.264-.144.4l-.084.268c-.04.148-.068.304-.096.46l-.044.24C.02 44.016 0 44.256 0 44.5v39a5.45 5.45 0 0 0 .052.72c.008.076.028.156.044.236l.096.46.084.268.144.404.12.264.188.368.16.252.228.332a2.8 2.8 0 0 0 .192.24l.272.296.22.216.312.264.248.188c.032.02.06.048.092.068l58.496 39c.924.616 1.988.924 3.052.924s2.128-.308 3.052-.924l58.5-39c.032-.02.06-.048.092-.068l.248-.188.312-.264c.076-.068.144-.14.216-.216a4.83 4.83 0 0 0 .276-.296l.188-.24c.084-.108.16-.216.232-.332l.156-.252c.072-.124.132-.244.188-.368l.124-.264.14-.404.088-.268a5.86 5.86 0 0 0 .096-.46l.044-.236a5.44 5.44 0 0 0 .048-.72v-39a5.25 5.25 0 0 0-.048-.716z" fill="#000" fill-rule="evenodd"/></svg>